<?xml version="1.0" encoding="UTF-8" standalone="yes"?><svg xmlns="http://www.w3.org/2000/svg" xmlns:xlink="http://www.w3.org/1999/xlink" height="82px" style="width:179px;height:82px;" version="1.1" viewBox="0 0 179 82" width="179px"><defs/><g><text fill="#000000" font-family="Default" font-size="12" lengthAdjust="spacingAndGlyphs" textLength="61" x="7" y="18.1387">Number 1</text><text fill="#000000" font-family="Default" font-size="12" lengthAdjust="spacingAndGlyphs" textLength="61" x="70" y="18.1387">Number 2</text><text fill="#000000" font-family="Default" font-size="12" lengthAdjust="spacingAndGlyphs" textLength="39" x="133" y="18.1387">Result</text><text fill="#000000" font-family="Default" font-size="12" lengthAdjust="spacingAndGlyphs" textLength="8" x="7" y="34.1074">1</text><text fill="#000000" font-family="Default" font-size="12" lengthAdjust="spacingAndGlyphs" textLength="8" x="70" y="34.1074">5</text><text fill="#000000" font-family="Default" font-size="12" lengthAdjust="spacingAndGlyphs" textLength="8" x="133" y="34.1074">6</text><text fill="#000000" font-family="Default" font-size="12" lengthAdjust="spacingAndGlyphs" textLength="16" x="7" y="50.0762">15</text><text fill="#000000" font-family="Default" font-size="12" lengthAdjust="spacingAndGlyphs" textLength="16" x="70" y="50.0762">31</text><text fill="#000000" font-family="Default" font-size="12" lengthAdjust="spacingAndGlyphs" textLength="16" x="133" y="50.0762">46</text><line style="stroke: #000000; stroke-width: 1.0;" x1="6" x2="69" y1="6" y2="6"/><line style="stroke: #000000; stroke-width: 1.0;" x1="69" x2="132" y1="6" y2="6"/><line style="stroke: #000000; stroke-width: 1.0;" x1="132" x2="173" y1="21.9688" y2="21.9688"/><line style="stroke: #000000; stroke-width: 1.0;" x1="132" x2="173" y1="6" y2="6"/><line style="stroke: #000000; stroke-width: 1.0;" x1="69" x2="132" y1="21.9688" y2="21.9688"/><line style="stroke: #000000; stroke-width: 1.0;" x1="6" x2="69" y1="53.9063" y2="53.9063"/><line style="stroke: #000000; stroke-width: 1.0;" x1="132" x2="173" y1="37.9375" y2="37.9375"/><line style="stroke: #000000; stroke-width: 1.0;" x1="132" x2="173" y1="53.9063" y2="53.9063"/><line style="stroke: #000000; stroke-width: 1.0;" x1="69" x2="132" y1="53.9063" y2="53.9063"/><line style="stroke: #000000; stroke-width: 1.0;" x1="69" x2="132" y1="37.9375" y2="37.9375"/><line style="stroke: #000000; stroke-width: 1.0;" x1="6" x2="69" y1="37.9375" y2="37.9375"/><line style="stroke: #000000; stroke-width: 1.0;" x1="6" x2="69" y1="21.9688" y2="21.9688"/><line style="stroke: #000000; stroke-width: 1.0;" x1="6" x2="6" y1="6" y2="21.9688"/><line style="stroke: #000000; stroke-width: 1.0;" x1="69" x2="69" y1="6" y2="21.9688"/><line style="stroke: #000000; stroke-width: 1.0;" x1="173" x2="173" y1="21.9688" y2="37.9375"/><line style="stroke: #000000; stroke-width: 1.0;" x1="132" x2="132" y1="21.9688" y2="37.9375"/><line style="stroke: #000000; stroke-width: 1.0;" x1="132" x2="132" y1="6" y2="21.9688"/><line style="stroke: #000000; stroke-width: 1.0;" x1="69" x2="69" y1="21.9688" y2="37.9375"/><line style="stroke: #000000; stroke-width: 1.0;" x1="173" x2="173" y1="6" y2="21.9688"/><line style="stroke: #000000; stroke-width: 1.0;" x1="132" x2="132" y1="37.9375" y2="53.9063"/><line style="stroke: #000000; stroke-width: 1.0;" x1="173" x2="173" y1="37.9375" y2="53.9063"/><line style="stroke: #000000; stroke-width: 1.0;" x1="69" x2="69" y1="37.9375" y2="53.9063"/><line style="stroke: #000000; stroke-width: 1.0;" x1="6" x2="6" y1="37.9375" y2="53.9063"/><line style="stroke: #000000; stroke-width: 1.0;" x1="6" x2="6" y1="21.9688" y2="37.9375"/><text fill="#000000" font-family="Default" font-size="12" lengthAdjust="spacingAndGlyphs" textLength="8" x="10" y="68.0449">3</text><line style="stroke: #000000; stroke-width: 1.0;" x1="8" x2="59" y1="70.875" y2="70.875"/><line style="stroke: #000000; stroke-width: 1.0;" x1="8" x2="8" y1="67.875" y2="69.875"/><line style="stroke: #000000; stroke-width: 1.0;" x1="59" x2="59" y1="67.875" y2="69.875"/><text fill="#000000" font-family="Default" font-size="12" lengthAdjust="spacingAndGlyphs" textLength="8" x="66" y="68.0449">6</text><line style="stroke: #000000; stroke-width: 1.0;" x1="64" x2="107" y1="70.875" y2="70.875"/><line style="stroke: #000000; stroke-width: 1.0;" x1="64" x2="64" y1="67.875" y2="69.875"/><line style="stroke: #000000; stroke-width: 1.0;" x1="107" x2="107" y1="67.875" y2="69.875"/><rect fill="#EEEEEE" height="17.9688" rx="5" ry="5" style="stroke: #000000; stroke-width: 2.5;" width="60" x="113.5" y="59.4063"/><text fill="#000000" font-family="Default" font-size="12" lengthAdjust="spacingAndGlyphs" textLength="53" x="117" y="72.5449">Get Sum</text><line style="stroke: #000000; stroke-width: 1.0;" x1="5" x2="178" y1="5" y2="5"/><line style="stroke: #000000; stroke-width: 1.0;" x1="5" x2="178" y1="81.875" y2="81.875"/><line style="stroke: #000000; stroke-width: 1.0;" x1="5" x2="5" y1="5" y2="54.9063"/><line style="stroke: #000000; stroke-width: 1.0;" x1="178" x2="178" y1="5" y2="54.9063"/><line style="stroke: #000000; stroke-width: 1.0;" x1="178" x2="178" y1="54.9063" y2="81.875"/><line style="stroke: #000000; stroke-width: 1.0;" x1="5" x2="5" y1="54.9063" y2="81.875"/></g></svg>