<?xml version="1.0" encoding="UTF-8" standalone="yes"?><svg xmlns="http://www.w3.org/2000/svg" xmlns:xlink="http://www.w3.org/1999/xlink" height="513px" style="width:1145px;height:513px;" version="1.1" viewBox="0 0 1145 513" width="1145px"><defs><filter height="300%" id="f1" width="300%" x="-1" y="-1"><feGaussianBlur result="blurOut" stdDeviation="2.0"/><feColorMatrix in="blurOut" result="blurOut2" type="matrix" values="0 0 0 0 0 0 0 0 0 0 0 0 0 0 0 0 0 0 .4 0"/><feOffset dx="4.0" dy="4.0" in="blurOut2" result="blurOut3"/><feBlend in="SourceGraphic" in2="blurOut3" mode="normal"/></filter></defs><g><path d="M33,39 C33,36 35,34 38,34 C41,34 43,36 43,39 C43,36 45,34 48,34 C51,34 53,36 53,39 C53,36 55,34 58,34 C61,34 63,36 63,39 C63,36 65,34 68,34 C71,34 73,36 73,39 C73,36 75,34 78,34 C81,34 83,36 83,39 C83,36 85,34 88,34 C91,34 93,36 93,39 C93,36 95,34 98,34 C101,34 103,36 103,39 C103,36 105,34 108,34 C111,34 113,36 113,39 C113,36 115,34 118,34 C121,34 123,36 123,39 C123,36 125,34 128,34 C131,34 133,36 133,39 C133,36 135,34 138,34 C141,34 143,36 143,39 C143,36 145,34 148,34 C151,34 153,36 153,39 C153,36 155,34 158,34 C161,34 163,36 163,39 C163,36 165,34 168,34 C171,34 173,36 173,39 C173,36 175,34 178,34 C181,34 183,36 183,39 C183,36 185,34 188,34 C191,34 193,36 193,39 C193,36 195,34 198,34 C201,34 203,36 203,39 C203,36 205,34 208,34 C211,34 213,36 213,39 C213,36 215,34 218,34 C221,34 223,36 223,39 C223,36 225,34 228,34 C231,34 233,36 233,39 C233,36 235,34 238,34 C241,34 243,36 243,39 C243,36 245,34 248,34 C251,34 253,36 253,39 C253,36 255,34 258,34 C261,34 263,36 263,39 C263,36 265,34 268,34 C271,34 273,36 273,39 C273,36 275,34 278,34 C281,34 283,36 283,39 C283,36 285,34 288,34 C291,34 293,36 293,39 C293,36 295,34 298,34 C301,34 303,36 303,39 C303,36 305,34 308,34 C311,34 313,36 313,39 C313,36 315,34 318,34 C321,34 323,36 323,39 C323,36 325,34 328,34 C331,34 333,36 333,39 C333,36 335,34 338,34 C341,34 343,36 343,39 C343,36 345,34 348,34 C351,34 353,36 353,39 C353,36 355,34 358,34 C361,34 363,36 363,39 C363,36 365,34 368,34 C371,34 373,36 373,39 C373,36 375,34 378,34 C381,34 383,36 383,39 C383,36 385,34 388,34 C391,34 393,36 393,39 C393,36 395,34 398,34 C401,34 403,36 403,39 C403,36 405,34 408,34 C411,34 413,36 413,39 C413,36 415,34 418,34 C421,34 423,36 423,39 C423,36 425,34 428,34 C431,34 433,36 433,39 C433,36 435,34 438,34 C441,34 443,36 443,39 C443,36 445,34 448,34 C451,34 453,36 453,39 C453,36 455,34 458,34 C461,34 463,36 463,39 C466,39 468,41 468,44 C468,47 466,49 463,49 C466,49 468,51 468,54 C468,57 466,59 463,59 C466,59 468,61 468,64 C468,67 466,69 463,69 C466,69 468,71 468,74 C468,77 466,79 463,79 C466,79 468,81 468,84 C468,87 466,89 463,89 C466,89 468,91 468,94 C468,97 466,99 463,99 C466,99 468,101 468,104 C468,107 466,109 463,109 C466,109 468,111 468,114 C468,117 466,119 463,119 C466,119 468,121 468,124 C468,127 466,129 463,129 C466,129 468,131 468,134 C468,137 466,139 463,139 C466,139 468,141 468,144 C468,147 466,149 463,149 C466,149 468,151 468,154 C468,157 466,159 463,159 C466,159 468,161 468,164 C468,167 466,169 463,169 C466,169 468,171 468,174 C468,177 466,179 463,179 C466,179 468,181 468,184 C468,187 466,189 463,189 C466,189 468,191 468,194 C468,197 466,199 463,199 C466,199 468,201 468,204 C468,207 466,209 463,209 C466,209 468,211 468,214 C468,217 466,219 463,219 C466,219 468,221 468,224 C468,227 466,229 463,229 C463,232 460,234 458,234 C455,234 453,232 453,229 C453,232 450,234 448,234 C445,234 443,232 443,229 C443,232 440,234 438,234 C435,234 433,232 433,229 C433,232 430,234 428,234 C425,234 423,232 423,229 C423,232 420,234 418,234 C415,234 413,232 413,229 C413,232 410,234 408,234 C405,234 403,232 403,229 C403,232 400,234 398,234 C395,234 393,232 393,229 C393,232 390,234 388,234 C385,234 383,232 383,229 C383,232 380,234 378,234 C375,234 373,232 373,229 C373,232 370,234 368,234 C365,234 363,232 363,229 C363,232 360,234 358,234 C355,234 353,232 353,229 C353,232 350,234 348,234 C345,234 343,232 343,229 C343,232 340,234 338,234 C335,234 333,232 333,229 C333,232 330,234 328,234 C325,234 323,232 323,229 C323,232 320,234 318,234 C315,234 313,232 313,229 C313,232 310,234 308,234 C305,234 303,232 303,229 C303,232 300,234 298,234 C295,234 293,232 293,229 C293,232 290,234 288,234 C285,234 283,232 283,229 C283,232 280,234 278,234 C275,234 273,232 273,229 C273,232 270,234 268,234 C265,234 263,232 263,229 C263,232 260,234 258,234 C255,234 253,232 253,229 C253,232 250,234 248,234 C245,234 243,232 243,229 C243,232 240,234 238,234 C235,234 233,232 233,229 C233,232 230,234 228,234 C225,234 223,232 223,229 C223,232 220,234 218,234 C215,234 213,232 213,229 C213,232 210,234 208,234 C205,234 203,232 203,229 C203,232 200,234 198,234 C195,234 193,232 193,229 C193,232 190,234 188,234 C185,234 183,232 183,229 C183,232 180,234 178,234 C175,234 173,232 173,229 C173,232 170,234 168,234 C165,234 163,232 163,229 C163,232 160,234 158,234 C155,234 153,232 153,229 C153,232 150,234 148,234 C145,234 143,232 143,229 C143,232 140,234 138,234 C135,234 133,232 133,229 C133,232 130,234 128,234 C125,234 123,232 123,229 C123,232 120,234 118,234 C115,234 113,232 113,229 C113,232 110,234 108,234 C105,234 103,232 103,229 C103,232 100,234 98,234 C95,234 93,232 93,229 C93,232 90,234 88,234 C85,234 83,232 83,229 C83,232 80,234 78,234 C75,234 73,232 73,229 C73,232 70,234 68,234 C65,234 63,232 63,229 C63,232 60,234 58,234 C55,234 53,232 53,229 C53,232 50,234 48,234 C45,234 43,232 43,229 C43,232 40,234 38,234 C35,234 33,232 33,229 C30,229 28,227 28,224 C28,221 30,219 33,219 C30,219 28,217 28,214 C28,211 30,209 33,209 C30,209 28,207 28,204 C28,201 30,199 33,199 C30,199 28,197 28,194 C28,191 30,189 33,189 C30,189 28,187 28,184 C28,181 30,179 33,179 C30,179 28,177 28,174 C28,171 30,169 33,169 C30,169 28,167 28,164 C28,161 30,159 33,159 C30,159 28,157 28,154 C28,151 30,149 33,149 C30,149 28,147 28,144 C28,141 30,139 33,139 C30,139 28,137 28,134 C28,131 30,129 33,129 C30,129 28,127 28,124 C28,121 30,119 33,119 C30,119 28,117 28,114 C28,111 30,109 33,109 C30,109 28,107 28,104 C28,101 30,99 33,99 C30,99 28,97 28,94 C28,91 30,89 33,89 C30,89 28,87 28,84 C28,81 30,79 33,79 C30,79 28,77 28,74 C28,71 30,69 33,69 C30,69 28,67 28,64 C28,61 30,59 33,59 C30,59 28,57 28,54 C28,51 30,49 33,49 C30,49 28,47 28,44 C28,41 30,39 33,39 " fill="#FFFFFF" filter="url(#f1)" style="stroke: #000000; stroke-width: 2.0;"/><text fill="#000000" font-family="sans-serif" font-size="14" font-weight="bold" lengthAdjust="spacingAndGlyphs" textLength="39" x="227" y="57.9951">View</text><polygon fill="#FFFFFF" filter="url(#f1)" points="297,83,346,83,353,105.2969,431,105.2969,431,203,297,203,297,83" style="stroke: #000000; stroke-width: 2.0;"/><line style="stroke: #000000; stroke-width: 2.0;" x1="297" x2="353" y1="105.2969" y2="105.2969"/><text fill="#000000" font-family="sans-serif" font-size="14" font-weight="bold" lengthAdjust="spacingAndGlyphs" textLength="43" x="301" y="97.9951">HTML</text><path d="M33,291 C33,288 35,286 38,286 C41,286 43,288 43,291 C43,288 45,286 48,286 C51,286 53,288 53,291 C53,288 55,286 58,286 C61,286 63,288 63,291 C63,288 65,286 68,286 C71,286 73,288 73,291 C73,288 75,286 78,286 C81,286 83,288 83,291 C83,288 85,286 88,286 C91,286 93,288 93,291 C93,288 95,286 98,286 C101,286 103,288 103,291 C103,288 105,286 108,286 C111,286 113,288 113,291 C113,288 115,286 118,286 C121,286 123,288 123,291 C123,288 125,286 128,286 C131,286 133,288 133,291 C133,288 135,286 138,286 C141,286 143,288 143,291 C143,288 145,286 148,286 C151,286 153,288 153,291 C153,288 155,286 158,286 C161,286 163,288 163,291 C163,288 165,286 168,286 C171,286 173,288 173,291 C173,288 175,286 178,286 C181,286 183,288 183,291 C183,288 185,286 188,286 C191,286 193,288 193,291 C193,288 195,286 198,286 C201,286 203,288 203,291 C203,288 205,286 208,286 C211,286 213,288 213,291 C213,288 215,286 218,286 C221,286 223,288 223,291 C223,288 225,286 228,286 C231,286 233,288 233,291 C233,288 235,286 238,286 C241,286 243,288 243,291 C243,288 245,286 248,286 C251,286 253,288 253,291 C253,288 255,286 258,286 C261,286 263,288 263,291 C263,288 265,286 268,286 C271,286 273,288 273,291 C273,288 275,286 278,286 C281,286 283,288 283,291 C283,288 285,286 288,286 C291,286 293,288 293,291 C293,288 295,286 298,286 C301,286 303,288 303,291 C303,288 305,286 308,286 C311,286 313,288 313,291 C313,288 315,286 318,286 C321,286 323,288 323,291 C323,288 325,286 328,286 C331,286 333,288 333,291 C333,288 335,286 338,286 C341,286 343,288 343,291 C343,288 345,286 348,286 C351,286 353,288 353,291 C353,288 355,286 358,286 C361,286 363,288 363,291 C363,288 365,286 368,286 C371,286 373,288 373,291 C373,288 375,286 378,286 C381,286 383,288 383,291 C383,288 385,286 388,286 C391,286 393,288 393,291 C393,288 395,286 398,286 C401,286 403,288 403,291 C403,288 405,286 408,286 C411,286 413,288 413,291 C413,288 415,286 418,286 C421,286 423,288 423,291 C423,288 425,286 428,286 C431,286 433,288 433,291 C433,288 435,286 438,286 C441,286 443,288 443,291 C443,288 445,286 448,286 C451,286 453,288 453,291 C453,288 455,286 458,286 C461,286 463,288 463,291 C463,288 465,286 468,286 C471,286 473,288 473,291 C473,288 475,286 478,286 C481,286 483,288 483,291 C483,288 485,286 488,286 C491,286 493,288 493,291 C493,288 495,286 498,286 C501,286 503,288 503,291 C503,288 505,286 508,286 C511,286 513,288 513,291 C513,288 515,286 518,286 C521,286 523,288 523,291 C523,288 525,286 528,286 C531,286 533,288 533,291 C533,288 535,286 538,286 C541,286 543,288 543,291 C543,288 545,286 548,286 C551,286 553,288 553,291 C553,288 555,286 558,286 C561,286 563,288 563,291 C563,288 565,286 568,286 C571,286 573,288 573,291 C573,288 575,286 578,286 C581,286 583,288 583,291 C583,288 585,286 588,286 C591,286 593,288 593,291 C593,288 595,286 598,286 C601,286 603,288 603,291 C603,288 605,286 608,286 C611,286 613,288 613,291 C613,288 615,286 618,286 C621,286 623,288 623,291 C623,288 625,286 628,286 C631,286 633,288 633,291 C633,288 635,286 638,286 C641,286 643,288 643,291 C643,288 645,286 648,286 C651,286 653,288 653,291 C653,288 655,286 658,286 C661,286 663,288 663,291 C663,288 665,286 668,286 C671,286 673,288 673,291 C673,288 675,286 678,286 C681,286 683,288 683,291 C683,288 685,286 688,286 C691,286 693,288 693,291 C693,288 695,286 698,286 C701,286 703,288 703,291 C703,288 705,286 708,286 C711,286 713,288 713,291 C713,288 715,286 718,286 C721,286 723,288 723,291 C723,288 725,286 728,286 C731,286 733,288 733,291 C733,288 735,286 738,286 C741,286 743,288 743,291 C743,288 745,286 748,286 C751,286 753,288 753,291 C753,288 755,286 758,286 C761,286 763,288 763,291 C763,288 765,286 768,286 C771,286 773,288 773,291 C773,288 775,286 778,286 C781,286 783,288 783,291 C783,288 785,286 788,286 C791,286 793,288 793,291 C793,288 795,286 798,286 C801,286 803,288 803,291 C803,288 805,286 808,286 C811,286 813,288 813,291 C813,288 815,286 818,286 C821,286 823,288 823,291 C823,288 825,286 828,286 C831,286 833,288 833,291 C833,288 835,286 838,286 C841,286 843,288 843,291 C843,288 845,286 848,286 C851,286 853,288 853,291 C853,288 855,286 858,286 C861,286 863,288 863,291 C863,288 865,286 868,286 C871,286 873,288 873,291 C873,288 875,286 878,286 C881,286 883,288 883,291 C883,288 885,286 888,286 C891,286 893,288 893,291 C893,288 895,286 898,286 C901,286 903,288 903,291 C903,288 905,286 908,286 C911,286 913,288 913,291 C913,288 915,286 918,286 C921,286 923,288 923,291 C923,288 925,286 928,286 C931,286 933,288 933,291 C933,288 935,286 938,286 C941,286 943,288 943,291 C943,288 945,286 948,286 C951,286 953,288 953,291 C953,288 955,286 958,286 C961,286 963,288 963,291 C963,288 965,286 968,286 C971,286 973,288 973,291 C973,288 975,286 978,286 C981,286 983,288 983,291 C983,288 985,286 988,286 C991,286 993,288 993,291 C993,288 995,286 998,286 C1001,286 1003,288 1003,291 C1003,288 1005,286 1008,286 C1011,286 1013,288 1013,291 C1013,288 1015,286 1018,286 C1021,286 1023,288 1023,291 C1023,288 1025,286 1028,286 C1031,286 1033,288 1033,291 C1033,288 1035,286 1038,286 C1041,286 1043,288 1043,291 C1043,288 1045,286 1048,286 C1051,286 1053,288 1053,291 C1053,288 1055,286 1058,286 C1061,286 1063,288 1063,291 C1063,288 1065,286 1068,286 C1071,286 1073,288 1073,291 C1073,288 1075,286 1078,286 C1081,286 1083,288 1083,291 C1083,288 1085,286 1088,286 C1091,286 1093,288 1093,291 C1093,288 1095,286 1098,286 C1101,286 1103,288 1103,291 C1103,288 1105,286 1108,286 C1111,286 1113,288 1113,291 C1113,288 1115,286 1118,286 C1121,286 1123,288 1123,291 C1123,288 1125,286 1128,286 C1131,286 1133,288 1133,291 C1136,291 1138,293 1138,296 C1138,299 1136,301 1133,301 C1136,301 1138,303 1138,306 C1138,309 1136,311 1133,311 C1136,311 1138,313 1138,316 C1138,319 1136,321 1133,321 C1136,321 1138,323 1138,326 C1138,329 1136,331 1133,331 C1136,331 1138,333 1138,336 C1138,339 1136,341 1133,341 C1136,341 1138,343 1138,346 C1138,349 1136,351 1133,351 C1136,351 1138,353 1138,356 C1138,359 1136,361 1133,361 C1136,361 1138,363 1138,366 C1138,369 1136,371 1133,371 C1136,371 1138,373 1138,376 C1138,379 1136,381 1133,381 C1136,381 1138,383 1138,386 C1138,389 1136,391 1133,391 C1136,391 1138,393 1138,396 C1138,399 1136,401 1133,401 C1136,401 1138,403 1138,406 C1138,409 1136,411 1133,411 C1136,411 1138,413 1138,416 C1138,419 1136,421 1133,421 C1136,421 1138,423 1138,426 C1138,429 1136,431 1133,431 C1136,431 1138,433 1138,436 C1138,439 1136,441 1133,441 C1136,441 1138,443 1138,446 C1138,449 1136,451 1133,451 C1136,451 1138,453 1138,456 C1138,459 1136,461 1133,461 C1136,461 1138,463 1138,466 C1138,469 1136,471 1133,471 C1136,471 1138,473 1138,476 C1138,479 1136,481 1133,481 C1136,481 1138,483 1138,486 C1138,489 1136,491 1133,491 C1136,491 1138,493 1138,496 C1138,499 1136,501 1133,501 C1133,504 1130,506 1128,506 C1125,506 1123,504 1123,501 C1123,504 1120,506 1118,506 C1115,506 1113,504 1113,501 C1113,504 1110,506 1108,506 C1105,506 1103,504 1103,501 C1103,504 1100,506 1098,506 C1095,506 1093,504 1093,501 C1093,504 1090,506 1088,506 C1085,506 1083,504 1083,501 C1083,504 1080,506 1078,506 C1075,506 1073,504 1073,501 C1073,504 1070,506 1068,506 C1065,506 1063,504 1063,501 C1063,504 1060,506 1058,506 C1055,506 1053,504 1053,501 C1053,504 1050,506 1048,506 C1045,506 1043,504 1043,501 C1043,504 1040,506 1038,506 C1035,506 1033,504 1033,501 C1033,504 1030,506 1028,506 C1025,506 1023,504 1023,501 C1023,504 1020,506 1018,506 C1015,506 1013,504 1013,501 C1013,504 1010,506 1008,506 C1005,506 1003,504 1003,501 C1003,504 1000,506 998,506 C995,506 993,504 993,501 C993,504 990,506 988,506 C985,506 983,504 983,501 C983,504 980,506 978,506 C975,506 973,504 973,501 C973,504 970,506 968,506 C965,506 963,504 963,501 C963,504 960,506 958,506 C955,506 953,504 953,501 C953,504 950,506 948,506 C945,506 943,504 943,501 C943,504 940,506 938,506 C935,506 933,504 933,501 C933,504 930,506 928,506 C925,506 923,504 923,501 C923,504 920,506 918,506 C915,506 913,504 913,501 C913,504 910,506 908,506 C905,506 903,504 903,501 C903,504 900,506 898,506 C895,506 893,504 893,501 C893,504 890,506 888,506 C885,506 883,504 883,501 C883,504 880,506 878,506 C875,506 873,504 873,501 C873,504 870,506 868,506 C865,506 863,504 863,501 C863,504 860,506 858,506 C855,506 853,504 853,501 C853,504 850,506 848,506 C845,506 843,504 843,501 C843,504 840,506 838,506 C835,506 833,504 833,501 C833,504 830,506 828,506 C825,506 823,504 823,501 C823,504 820,506 818,506 C815,506 813,504 813,501 C813,504 810,506 808,506 C805,506 803,504 803,501 C803,504 800,506 798,506 C795,506 793,504 793,501 C793,504 790,506 788,506 C785,506 783,504 783,501 C783,504 780,506 778,506 C775,506 773,504 773,501 C773,504 770,506 768,506 C765,506 763,504 763,501 C763,504 760,506 758,506 C755,506 753,504 753,501 C753,504 750,506 748,506 C745,506 743,504 743,501 C743,504 740,506 738,506 C735,506 733,504 733,501 C733,504 730,506 728,506 C725,506 723,504 723,501 C723,504 720,506 718,506 C715,506 713,504 713,501 C713,504 710,506 708,506 C705,506 703,504 703,501 C703,504 700,506 698,506 C695,506 693,504 693,501 C693,504 690,506 688,506 C685,506 683,504 683,501 C683,504 680,506 678,506 C675,506 673,504 673,501 C673,504 670,506 668,506 C665,506 663,504 663,501 C663,504 660,506 658,506 C655,506 653,504 653,501 C653,504 650,506 648,506 C645,506 643,504 643,501 C643,504 640,506 638,506 C635,506 633,504 633,501 C633,504 630,506 628,506 C625,506 623,504 623,501 C623,504 620,506 618,506 C615,506 613,504 613,501 C613,504 610,506 608,506 C605,506 603,504 603,501 C603,504 600,506 598,506 C595,506 593,504 593,501 C593,504 590,506 588,506 C585,506 583,504 583,501 C583,504 580,506 578,506 C575,506 573,504 573,501 C573,504 570,506 568,506 C565,506 563,504 563,501 C563,504 560,506 558,506 C555,506 553,504 553,501 C553,504 550,506 548,506 C545,506 543,504 543,501 C543,504 540,506 538,506 C535,506 533,504 533,501 C533,504 530,506 528,506 C525,506 523,504 523,501 C523,504 520,506 518,506 C515,506 513,504 513,501 C513,504 510,506 508,506 C505,506 503,504 503,501 C503,504 500,506 498,506 C495,506 493,504 493,501 C493,504 490,506 488,506 C485,506 483,504 483,501 C483,504 480,506 478,506 C475,506 473,504 473,501 C473,504 470,506 468,506 C465,506 463,504 463,501 C463,504 460,506 458,506 C455,506 453,504 453,501 C453,504 450,506 448,506 C445,506 443,504 443,501 C443,504 440,506 438,506 C435,506 433,504 433,501 C433,504 430,506 428,506 C425,506 423,504 423,501 C423,504 420,506 418,506 C415,506 413,504 413,501 C413,504 410,506 408,506 C405,506 403,504 403,501 C403,504 400,506 398,506 C395,506 393,504 393,501 C393,504 390,506 388,506 C385,506 383,504 383,501 C383,504 380,506 378,506 C375,506 373,504 373,501 C373,504 370,506 368,506 C365,506 363,504 363,501 C363,504 360,506 358,506 C355,506 353,504 353,501 C353,504 350,506 348,506 C345,506 343,504 343,501 C343,504 340,506 338,506 C335,506 333,504 333,501 C333,504 330,506 328,506 C325,506 323,504 323,501 C323,504 320,506 318,506 C315,506 313,504 313,501 C313,504 310,506 308,506 C305,506 303,504 303,501 C303,504 300,506 298,506 C295,506 293,504 293,501 C293,504 290,506 288,506 C285,506 283,504 283,501 C283,504 280,506 278,506 C275,506 273,504 273,501 C273,504 270,506 268,506 C265,506 263,504 263,501 C263,504 260,506 258,506 C255,506 253,504 253,501 C253,504 250,506 248,506 C245,506 243,504 243,501 C243,504 240,506 238,506 C235,506 233,504 233,501 C233,504 230,506 228,506 C225,506 223,504 223,501 C223,504 220,506 218,506 C215,506 213,504 213,501 C213,504 210,506 208,506 C205,506 203,504 203,501 C203,504 200,506 198,506 C195,506 193,504 193,501 C193,504 190,506 188,506 C185,506 183,504 183,501 C183,504 180,506 178,506 C175,506 173,504 173,501 C173,504 170,506 168,506 C165,506 163,504 163,501 C163,504 160,506 158,506 C155,506 153,504 153,501 C153,504 150,506 148,506 C145,506 143,504 143,501 C143,504 140,506 138,506 C135,506 133,504 133,501 C133,504 130,506 128,506 C125,506 123,504 123,501 C123,504 120,506 118,506 C115,506 113,504 113,501 C113,504 110,506 108,506 C105,506 103,504 103,501 C103,504 100,506 98,506 C95,506 93,504 93,501 C93,504 90,506 88,506 C85,506 83,504 83,501 C83,504 80,506 78,506 C75,506 73,504 73,501 C73,504 70,506 68,506 C65,506 63,504 63,501 C63,504 60,506 58,506 C55,506 53,504 53,501 C53,504 50,506 48,506 C45,506 43,504 43,501 C43,504 40,506 38,506 C35,506 33,504 33,501 C30,501 28,499 28,496 C28,493 30,491 33,491 C30,491 28,489 28,486 C28,483 30,481 33,481 C30,481 28,479 28,476 C28,473 30,471 33,471 C30,471 28,469 28,466 C28,463 30,461 33,461 C30,461 28,459 28,456 C28,453 30,451 33,451 C30,451 28,449 28,446 C28,443 30,441 33,441 C30,441 28,439 28,436 C28,433 30,431 33,431 C30,431 28,429 28,426 C28,423 30,421 33,421 C30,421 28,419 28,416 C28,413 30,411 33,411 C30,411 28,409 28,406 C28,403 30,401 33,401 C30,401 28,399 28,396 C28,393 30,391 33,391 C30,391 28,389 28,386 C28,383 30,381 33,381 C30,381 28,379 28,376 C28,373 30,371 33,371 C30,371 28,369 28,366 C28,363 30,361 33,361 C30,361 28,359 28,356 C28,353 30,351 33,351 C30,351 28,349 28,346 C28,343 30,341 33,341 C30,341 28,339 28,336 C28,333 30,331 33,331 C30,331 28,329 28,326 C28,323 30,321 33,321 C30,321 28,319 28,316 C28,313 30,311 33,311 C30,311 28,309 28,306 C28,303 30,301 33,301 C30,301 28,299 28,296 C28,293 30,291 33,291 " fill="#FFFFFF" filter="url(#f1)" style="stroke: #000000; stroke-width: 2.0;"/><text fill="#000000" font-family="sans-serif" font-size="14" font-weight="bold" lengthAdjust="spacingAndGlyphs" textLength="53" x="555.5" y="309.9951">Server</text><polygon fill="#FFFFFF" filter="url(#f1)" points="962,335,1034,335,1041,357.2969,1102,357.2969,1102,472,962,472,962,335" style="stroke: #000000; stroke-width: 2.0;"/><line style="stroke: #000000; stroke-width: 2.0;" x1="962" x2="1041" y1="357.2969" y2="357.2969"/><text fill="#000000" font-family="sans-serif" font-size="14" font-weight="bold" lengthAdjust="spacingAndGlyphs" textLength="66" x="966" y="349.9951">domains</text><polygon fill="#FFFFFF" filter="url(#f1)" points="310,341,383,341,390,363.2969,938,363.2969,938,466,310,466,310,341" style="stroke: #000000; stroke-width: 2.0;"/><line style="stroke: #000000; stroke-width: 2.0;" x1="310" x2="390" y1="363.2969" y2="363.2969"/><text fill="#000000" font-family="sans-serif" font-size="14" font-weight="bold" lengthAdjust="spacingAndGlyphs" textLength="67" x="314" y="355.9951">services</text><polygon fill="#FFFFFF" filter="url(#f1)" points="70,341,162,341,169,363.2969,286,363.2969,286,466,70,466,70,341" style="stroke: #000000; stroke-width: 2.0;"/><line style="stroke: #000000; stroke-width: 2.0;" x1="70" x2="169" y1="363.2969" y2="363.2969"/><text fill="#000000" font-family="sans-serif" font-size="14" font-weight="bold" lengthAdjust="spacingAndGlyphs" textLength="86" x="74" y="355.9951">controllers</text><polygon fill="#FFFFFF" filter="url(#f1)" points="313,118,401,118,408,140.2969,415,140.2969,415,186.8906,313,186.8906,313,118" style="stroke: #000000; stroke-width: 2.0;"/><line style="stroke: #000000; stroke-width: 2.0;" x1="313" x2="408" y1="140.2969" y2="140.2969"/><text fill="#000000" font-family="sans-serif" font-size="14" font-weight="bold" lengthAdjust="spacingAndGlyphs" textLength="82" x="317" y="132.9951">Templates</text><polygon fill="#FFFFFF" filter="url(#f1)" points="206,118,264,118,271,140.2969,278,140.2969,278,186.8906,206,186.8906,206,118" style="stroke: #000000; stroke-width: 2.0;"/><line style="stroke: #000000; stroke-width: 2.0;" x1="206" x2="271" y1="140.2969" y2="140.2969"/><text fill="#000000" font-family="sans-serif" font-size="14" font-weight="bold" lengthAdjust="spacingAndGlyphs" textLength="52" x="210" y="132.9951">JQuery</text><polygon fill="#FFFFFF" filter="url(#f1)" points="73.5,118,156.5,118,163.5,140.2969,170.5,140.2969,170.5,186.8906,73.5,186.8906,73.5,118" style="stroke: #000000; stroke-width: 2.0;"/><line style="stroke: #000000; stroke-width: 2.0;" x1="73.5" x2="163.5" y1="140.2969" y2="140.2969"/><text fill="#000000" font-family="sans-serif" font-size="14" font-weight="bold" lengthAdjust="spacingAndGlyphs" textLength="77" x="77.5" y="132.9951">Bootstrap</text><rect fill="#FEFECE" filter="url(#f1)" height="86.4141" style="stroke: #A80036; stroke-width: 1.5;" width="108" x="978" y="370"/><ellipse cx="1015.05" cy="386" fill="#ADD1B2" rx="11" ry="11" style="stroke: #A80036; stroke-width: 1.0;"/><path d="M1018.0188,391.6406 Q1017.4406,391.9375 1016.8,392.0859 Q1016.1594,392.2344 1015.4563,392.2344 Q1012.9563,392.2344 1011.6359,390.5859 Q1010.3156,388.9375 1010.3156,385.8125 Q1010.3156,382.6875 1011.6359,381.0313 Q1012.9563,379.375 1015.4563,379.375 Q1016.1594,379.375 1016.8078,379.5313 Q1017.4563,379.6875 1018.0188,379.9844 L1018.0188,382.7031 Q1017.3938,382.125 1016.8,381.8516 Q1016.2063,381.5781 1015.5813,381.5781 Q1014.2375,381.5781 1013.55,382.6484 Q1012.8625,383.7188 1012.8625,385.8125 Q1012.8625,387.9063 1013.55,388.9766 Q1014.2375,390.0469 1015.5813,390.0469 Q1016.2063,390.0469 1016.8,389.7734 Q1017.3938,389.5 1018.0188,388.9219 L1018.0188,391.6406 Z "/><text fill="#000000" font-family="sans-serif" font-size="12" lengthAdjust="spacingAndGlyphs" textLength="27" x="1033.95" y="390.1543">Sum</text><line style="stroke: #A80036; stroke-width: 1.5;" x1="979" x2="1085" y1="402" y2="402"/><text fill="#000000" font-family="sans-serif" font-size="11" lengthAdjust="spacingAndGlyphs" textLength="96" x="984" y="416.2104">Integer quantity1</text><text fill="#000000" font-family="sans-serif" font-size="11" lengthAdjust="spacingAndGlyphs" textLength="96" x="984" y="429.0151">Integer quantity2</text><text fill="#000000" font-family="sans-serif" font-size="11" lengthAdjust="spacingAndGlyphs" textLength="77" x="984" y="441.8198">Integer result</text><line style="stroke: #A80036; stroke-width: 1.5;" x1="979" x2="1085" y1="448.4141" y2="448.4141"/><rect fill="#FEFECE" filter="url(#f1)" height="73.6094" style="stroke: #A80036; stroke-width: 1.5;" width="595" x="326.5" y="376"/><ellipse cx="552.25" cy="392" fill="#ADD1B2" rx="11" ry="11" style="stroke: #A80036; stroke-width: 1.0;"/><path d="M555.2188,397.6406 Q554.6406,397.9375 554,398.0859 Q553.3594,398.2344 552.6563,398.2344 Q550.1563,398.2344 548.8359,396.5859 Q547.5156,394.9375 547.5156,391.8125 Q547.5156,388.6875 548.8359,387.0313 Q550.1563,385.375 552.6563,385.375 Q553.3594,385.375 554.0078,385.5313 Q554.6563,385.6875 555.2188,385.9844 L555.2188,388.7031 Q554.5938,388.125 554,387.8516 Q553.4063,387.5781 552.7813,387.5781 Q551.4375,387.5781 550.75,388.6484 Q550.0625,389.7188 550.0625,391.8125 Q550.0625,393.9063 550.75,394.9766 Q551.4375,396.0469 552.7813,396.0469 Q553.4063,396.0469 554,395.7734 Q554.5938,395.5 555.2188,394.9219 L555.2188,397.6406 Z "/><text fill="#000000" font-family="sans-serif" font-size="12" lengthAdjust="spacingAndGlyphs" textLength="135" x="572.75" y="396.1543">SumCalculatorService</text><line style="stroke: #A80036; stroke-width: 1.5;" x1="327.5" x2="920.5" y1="408" y2="408"/><line style="stroke: #A80036; stroke-width: 1.5;" x1="327.5" x2="920.5" y1="416" y2="416"/><ellipse cx="337.5" cy="427.9023" fill="#84BE84" rx="3" ry="3" style="stroke: #038048; stroke-width: 1.0;"/><text fill="#000000" font-family="sans-serif" font-size="11" lengthAdjust="spacingAndGlyphs" textLength="569" x="346.5" y="430.2104">add(quantity1 : Integer, quantity2 : Integer) throws NotANumberException, MissingQuantityException</text><ellipse cx="337.5" cy="440.707" fill="#84BE84" rx="3" ry="3" style="stroke: #038048; stroke-width: 1.0;"/><text fill="#000000" font-family="sans-serif" font-size="11" lengthAdjust="spacingAndGlyphs" textLength="70" x="346.5" y="443.0151">bringSums()</text><rect fill="#FEFECE" filter="url(#f1)" height="73.6094" style="stroke: #A80036; stroke-width: 1.5;" width="183" x="86.5" y="376"/><ellipse cx="101.5" cy="392" fill="#ADD1B2" rx="11" ry="11" style="stroke: #A80036; stroke-width: 1.0;"/><path d="M104.4688,397.6406 Q103.8906,397.9375 103.25,398.0859 Q102.6094,398.2344 101.9063,398.2344 Q99.4063,398.2344 98.0859,396.5859 Q96.7656,394.9375 96.7656,391.8125 Q96.7656,388.6875 98.0859,387.0313 Q99.4063,385.375 101.9063,385.375 Q102.6094,385.375 103.2578,385.5313 Q103.9063,385.6875 104.4688,385.9844 L104.4688,388.7031 Q103.8438,388.125 103.25,387.8516 Q102.6563,387.5781 102.0313,387.5781 Q100.6875,387.5781 100,388.6484 Q99.3125,389.7188 99.3125,391.8125 Q99.3125,393.9063 100,394.9766 Q100.6875,396.0469 102.0313,396.0469 Q102.6563,396.0469 103.25,395.7734 Q103.8438,395.5 104.4688,394.9219 L104.4688,397.6406 Z "/><text fill="#000000" font-family="sans-serif" font-size="12" lengthAdjust="spacingAndGlyphs" textLength="151" x="115.5" y="396.1543">SumCalculatorController</text><line style="stroke: #A80036; stroke-width: 1.5;" x1="87.5" x2="268.5" y1="408" y2="408"/><line style="stroke: #A80036; stroke-width: 1.5;" x1="87.5" x2="268.5" y1="416" y2="416"/><text fill="#000000" font-family="sans-serif" font-size="11" lengthAdjust="spacingAndGlyphs" textLength="104" x="92.5" y="430.2104">[POST] saveSum()</text><text fill="#000000" font-family="sans-serif" font-size="11" lengthAdjust="spacingAndGlyphs" textLength="94" x="92.5" y="443.0151">[GET] getSums()</text><path d="M38,234.795 C38,248.94 38,263.979 38,279.084 " fill="none" style="stroke: #A80036; stroke-width: 1.0;"/><polygon fill="#A80036" points="38,284.346,42,275.346,38,279.346,34,275.346,38,284.346" style="stroke: #A80036; stroke-width: 1.0;"/></g></svg>