<?xml version="1.0" encoding="UTF-8" standalone="yes"?><svg xmlns="http://www.w3.org/2000/svg" xmlns:xlink="http://www.w3.org/1999/xlink" height="458px" style="width:1015px;height:458px;" version="1.1" viewBox="0 0 1015 458" width="1015px"><defs><filter height="300%" id="f1" width="300%" x="-1" y="-1"><feGaussianBlur result="blurOut" stdDeviation="2.0"/><feColorMatrix in="blurOut" result="blurOut2" type="matrix" values="0 0 0 0 0 0 0 0 0 0 0 0 0 0 0 0 0 0 .4 0"/><feOffset dx="4.0" dy="4.0" in="blurOut2" result="blurOut3"/><feBlend in="SourceGraphic" in2="blurOut3" mode="normal"/></filter></defs><g><path d="M33,39 C33,36 35,34 38,34 C41,34 43,36 43,39 C43,36 45,34 48,34 C51,34 53,36 53,39 C53,36 55,34 58,34 C61,34 63,36 63,39 C63,36 65,34 68,34 C71,34 73,36 73,39 C73,36 75,34 78,34 C81,34 83,36 83,39 C83,36 85,34 88,34 C91,34 93,36 93,39 C93,36 95,34 98,34 C101,34 103,36 103,39 C103,36 105,34 108,34 C111,34 113,36 113,39 C113,36 115,34 118,34 C121,34 123,36 123,39 C123,36 125,34 128,34 C131,34 133,36 133,39 C133,36 135,34 138,34 C141,34 143,36 143,39 C143,36 145,34 148,34 C151,34 153,36 153,39 C153,36 155,34 158,34 C161,34 163,36 163,39 C163,36 165,34 168,34 C171,34 173,36 173,39 C173,36 175,34 178,34 C181,34 183,36 183,39 C183,36 185,34 188,34 C191,34 193,36 193,39 C193,36 195,34 198,34 C201,34 203,36 203,39 C203,36 205,34 208,34 C211,34 213,36 213,39 C213,36 215,34 218,34 C221,34 223,36 223,39 C223,36 225,34 228,34 C231,34 233,36 233,39 C233,36 235,34 238,34 C241,34 243,36 243,39 C243,36 245,34 248,34 C251,34 253,36 253,39 C253,36 255,34 258,34 C261,34 263,36 263,39 C263,36 265,34 268,34 C271,34 273,36 273,39 C273,36 275,34 278,34 C281,34 283,36 283,39 C283,36 285,34 288,34 C291,34 293,36 293,39 C293,36 295,34 298,34 C301,34 303,36 303,39 C303,36 305,34 308,34 C311,34 313,36 313,39 C313,36 315,34 318,34 C321,34 323,36 323,39 C323,36 325,34 328,34 C331,34 333,36 333,39 C333,36 335,34 338,34 C341,34 343,36 343,39 C343,36 345,34 348,34 C351,34 353,36 353,39 C353,36 355,34 358,34 C361,34 363,36 363,39 C363,36 365,34 368,34 C371,34 373,36 373,39 C373,36 375,34 378,34 C381,34 383,36 383,39 C383,36 385,34 388,34 C391,34 393,36 393,39 C393,36 395,34 398,34 C401,34 403,36 403,39 C406,39 408,41 408,44 C408,47 406,49 403,49 C406,49 408,51 408,54 C408,57 406,59 403,59 C406,59 408,61 408,64 C408,67 406,69 403,69 C406,69 408,71 408,74 C408,77 406,79 403,79 C406,79 408,81 408,84 C408,87 406,89 403,89 C406,89 408,91 408,94 C408,97 406,99 403,99 C406,99 408,101 408,104 C408,107 406,109 403,109 C406,109 408,111 408,114 C408,117 406,119 403,119 C406,119 408,121 408,124 C408,127 406,129 403,129 C406,129 408,131 408,134 C408,137 406,139 403,139 C406,139 408,141 408,144 C408,147 406,149 403,149 C406,149 408,151 408,154 C408,157 406,159 403,159 C403,162 400,164 398,164 C395,164 393,162 393,159 C393,162 390,164 388,164 C385,164 383,162 383,159 C383,162 380,164 378,164 C375,164 373,162 373,159 C373,162 370,164 368,164 C365,164 363,162 363,159 C363,162 360,164 358,164 C355,164 353,162 353,159 C353,162 350,164 348,164 C345,164 343,162 343,159 C343,162 340,164 338,164 C335,164 333,162 333,159 C333,162 330,164 328,164 C325,164 323,162 323,159 C323,162 320,164 318,164 C315,164 313,162 313,159 C313,162 310,164 308,164 C305,164 303,162 303,159 C303,162 300,164 298,164 C295,164 293,162 293,159 C293,162 290,164 288,164 C285,164 283,162 283,159 C283,162 280,164 278,164 C275,164 273,162 273,159 C273,162 270,164 268,164 C265,164 263,162 263,159 C263,162 260,164 258,164 C255,164 253,162 253,159 C253,162 250,164 248,164 C245,164 243,162 243,159 C243,162 240,164 238,164 C235,164 233,162 233,159 C233,162 230,164 228,164 C225,164 223,162 223,159 C223,162 220,164 218,164 C215,164 213,162 213,159 C213,162 210,164 208,164 C205,164 203,162 203,159 C203,162 200,164 198,164 C195,164 193,162 193,159 C193,162 190,164 188,164 C185,164 183,162 183,159 C183,162 180,164 178,164 C175,164 173,162 173,159 C173,162 170,164 168,164 C165,164 163,162 163,159 C163,162 160,164 158,164 C155,164 153,162 153,159 C153,162 150,164 148,164 C145,164 143,162 143,159 C143,162 140,164 138,164 C135,164 133,162 133,159 C133,162 130,164 128,164 C125,164 123,162 123,159 C123,162 120,164 118,164 C115,164 113,162 113,159 C113,162 110,164 108,164 C105,164 103,162 103,159 C103,162 100,164 98,164 C95,164 93,162 93,159 C93,162 90,164 88,164 C85,164 83,162 83,159 C83,162 80,164 78,164 C75,164 73,162 73,159 C73,162 70,164 68,164 C65,164 63,162 63,159 C63,162 60,164 58,164 C55,164 53,162 53,159 C53,162 50,164 48,164 C45,164 43,162 43,159 C43,162 40,164 38,164 C35,164 33,162 33,159 C30,159 28,157 28,154 C28,151 30,149 33,149 C30,149 28,147 28,144 C28,141 30,139 33,139 C30,139 28,137 28,134 C28,131 30,129 33,129 C30,129 28,127 28,124 C28,121 30,119 33,119 C30,119 28,117 28,114 C28,111 30,109 33,109 C30,109 28,107 28,104 C28,101 30,99 33,99 C30,99 28,97 28,94 C28,91 30,89 33,89 C30,89 28,87 28,84 C28,81 30,79 33,79 C30,79 28,77 28,74 C28,71 30,69 33,69 C30,69 28,67 28,64 C28,61 30,59 33,59 C30,59 28,57 28,54 C28,51 30,49 33,49 C30,49 28,47 28,44 C28,41 30,39 33,39 " fill="#FFFFFF" filter="url(#f1)" style="stroke: #000000; stroke-width: 2.0;"/><text fill="#000000" font-family="sans-serif" font-size="14" font-weight="bold" lengthAdjust="spacingAndGlyphs" textLength="39" x="196" y="57.9951">View</text><path d="M33,236 C33,233 35,231 38,231 C41,231 43,233 43,236 C43,233 45,231 48,231 C51,231 53,233 53,236 C53,233 55,231 58,231 C61,231 63,233 63,236 C63,233 65,231 68,231 C71,231 73,233 73,236 C73,233 75,231 78,231 C81,231 83,233 83,236 C83,233 85,231 88,231 C91,231 93,233 93,236 C93,233 95,231 98,231 C101,231 103,233 103,236 C103,233 105,231 108,231 C111,231 113,233 113,236 C113,233 115,231 118,231 C121,231 123,233 123,236 C123,233 125,231 128,231 C131,231 133,233 133,236 C133,233 135,231 138,231 C141,231 143,233 143,236 C143,233 145,231 148,231 C151,231 153,233 153,236 C153,233 155,231 158,231 C161,231 163,233 163,236 C163,233 165,231 168,231 C171,231 173,233 173,236 C173,233 175,231 178,231 C181,231 183,233 183,236 C183,233 185,231 188,231 C191,231 193,233 193,236 C193,233 195,231 198,231 C201,231 203,233 203,236 C203,233 205,231 208,231 C211,231 213,233 213,236 C213,233 215,231 218,231 C221,231 223,233 223,236 C223,233 225,231 228,231 C231,231 233,233 233,236 C233,233 235,231 238,231 C241,231 243,233 243,236 C243,233 245,231 248,231 C251,231 253,233 253,236 C253,233 255,231 258,231 C261,231 263,233 263,236 C263,233 265,231 268,231 C271,231 273,233 273,236 C273,233 275,231 278,231 C281,231 283,233 283,236 C283,233 285,231 288,231 C291,231 293,233 293,236 C293,233 295,231 298,231 C301,231 303,233 303,236 C303,233 305,231 308,231 C311,231 313,233 313,236 C313,233 315,231 318,231 C321,231 323,233 323,236 C323,233 325,231 328,231 C331,231 333,233 333,236 C333,233 335,231 338,231 C341,231 343,233 343,236 C343,233 345,231 348,231 C351,231 353,233 353,236 C353,233 355,231 358,231 C361,231 363,233 363,236 C363,233 365,231 368,231 C371,231 373,233 373,236 C373,233 375,231 378,231 C381,231 383,233 383,236 C383,233 385,231 388,231 C391,231 393,233 393,236 C393,233 395,231 398,231 C401,231 403,233 403,236 C403,233 405,231 408,231 C411,231 413,233 413,236 C413,233 415,231 418,231 C421,231 423,233 423,236 C423,233 425,231 428,231 C431,231 433,233 433,236 C433,233 435,231 438,231 C441,231 443,233 443,236 C443,233 445,231 448,231 C451,231 453,233 453,236 C453,233 455,231 458,231 C461,231 463,233 463,236 C463,233 465,231 468,231 C471,231 473,233 473,236 C473,233 475,231 478,231 C481,231 483,233 483,236 C483,233 485,231 488,231 C491,231 493,233 493,236 C493,233 495,231 498,231 C501,231 503,233 503,236 C503,233 505,231 508,231 C511,231 513,233 513,236 C513,233 515,231 518,231 C521,231 523,233 523,236 C523,233 525,231 528,231 C531,231 533,233 533,236 C533,233 535,231 538,231 C541,231 543,233 543,236 C543,233 545,231 548,231 C551,231 553,233 553,236 C553,233 555,231 558,231 C561,231 563,233 563,236 C563,233 565,231 568,231 C571,231 573,233 573,236 C573,233 575,231 578,231 C581,231 583,233 583,236 C583,233 585,231 588,231 C591,231 593,233 593,236 C593,233 595,231 598,231 C601,231 603,233 603,236 C603,233 605,231 608,231 C611,231 613,233 613,236 C613,233 615,231 618,231 C621,231 623,233 623,236 C623,233 625,231 628,231 C631,231 633,233 633,236 C633,233 635,231 638,231 C641,231 643,233 643,236 C643,233 645,231 648,231 C651,231 653,233 653,236 C653,233 655,231 658,231 C661,231 663,233 663,236 C663,233 665,231 668,231 C671,231 673,233 673,236 C673,233 675,231 678,231 C681,231 683,233 683,236 C683,233 685,231 688,231 C691,231 693,233 693,236 C693,233 695,231 698,231 C701,231 703,233 703,236 C703,233 705,231 708,231 C711,231 713,233 713,236 C713,233 715,231 718,231 C721,231 723,233 723,236 C723,233 725,231 728,231 C731,231 733,233 733,236 C733,233 735,231 738,231 C741,231 743,233 743,236 C743,233 745,231 748,231 C751,231 753,233 753,236 C753,233 755,231 758,231 C761,231 763,233 763,236 C763,233 765,231 768,231 C771,231 773,233 773,236 C773,233 775,231 778,231 C781,231 783,233 783,236 C783,233 785,231 788,231 C791,231 793,233 793,236 C793,233 795,231 798,231 C801,231 803,233 803,236 C803,233 805,231 808,231 C811,231 813,233 813,236 C813,233 815,231 818,231 C821,231 823,233 823,236 C823,233 825,231 828,231 C831,231 833,233 833,236 C833,233 835,231 838,231 C841,231 843,233 843,236 C843,233 845,231 848,231 C851,231 853,233 853,236 C853,233 855,231 858,231 C861,231 863,233 863,236 C863,233 865,231 868,231 C871,231 873,233 873,236 C873,233 875,231 878,231 C881,231 883,233 883,236 C883,233 885,231 888,231 C891,231 893,233 893,236 C893,233 895,231 898,231 C901,231 903,233 903,236 C903,233 905,231 908,231 C911,231 913,233 913,236 C913,233 915,231 918,231 C921,231 923,233 923,236 C923,233 925,231 928,231 C931,231 933,233 933,236 C933,233 935,231 938,231 C941,231 943,233 943,236 C943,233 945,231 948,231 C951,231 953,233 953,236 C953,233 955,231 958,231 C961,231 963,233 963,236 C963,233 965,231 968,231 C971,231 973,233 973,236 C973,233 975,231 978,231 C981,231 983,233 983,236 C983,233 985,231 988,231 C991,231 993,233 993,236 C993,233 995,231 998,231 C1001,231 1003,233 1003,236 C1006,236 1008,238 1008,241 C1008,244 1006,246 1003,246 C1006,246 1008,248 1008,251 C1008,254 1006,256 1003,256 C1006,256 1008,258 1008,261 C1008,264 1006,266 1003,266 C1006,266 1008,268 1008,271 C1008,274 1006,276 1003,276 C1006,276 1008,278 1008,281 C1008,284 1006,286 1003,286 C1006,286 1008,288 1008,291 C1008,294 1006,296 1003,296 C1006,296 1008,298 1008,301 C1008,304 1006,306 1003,306 C1006,306 1008,308 1008,311 C1008,314 1006,316 1003,316 C1006,316 1008,318 1008,321 C1008,324 1006,326 1003,326 C1006,326 1008,328 1008,331 C1008,334 1006,336 1003,336 C1006,336 1008,338 1008,341 C1008,344 1006,346 1003,346 C1006,346 1008,348 1008,351 C1008,354 1006,356 1003,356 C1006,356 1008,358 1008,361 C1008,364 1006,366 1003,366 C1006,366 1008,368 1008,371 C1008,374 1006,376 1003,376 C1006,376 1008,378 1008,381 C1008,384 1006,386 1003,386 C1006,386 1008,388 1008,391 C1008,394 1006,396 1003,396 C1006,396 1008,398 1008,401 C1008,404 1006,406 1003,406 C1006,406 1008,408 1008,411 C1008,414 1006,416 1003,416 C1006,416 1008,418 1008,421 C1008,424 1006,426 1003,426 C1006,426 1008,428 1008,431 C1008,434 1006,436 1003,436 C1006,436 1008,438 1008,441 C1008,444 1006,446 1003,446 C1003,449 1000,451 998,451 C995,451 993,449 993,446 C993,449 990,451 988,451 C985,451 983,449 983,446 C983,449 980,451 978,451 C975,451 973,449 973,446 C973,449 970,451 968,451 C965,451 963,449 963,446 C963,449 960,451 958,451 C955,451 953,449 953,446 C953,449 950,451 948,451 C945,451 943,449 943,446 C943,449 940,451 938,451 C935,451 933,449 933,446 C933,449 930,451 928,451 C925,451 923,449 923,446 C923,449 920,451 918,451 C915,451 913,449 913,446 C913,449 910,451 908,451 C905,451 903,449 903,446 C903,449 900,451 898,451 C895,451 893,449 893,446 C893,449 890,451 888,451 C885,451 883,449 883,446 C883,449 880,451 878,451 C875,451 873,449 873,446 C873,449 870,451 868,451 C865,451 863,449 863,446 C863,449 860,451 858,451 C855,451 853,449 853,446 C853,449 850,451 848,451 C845,451 843,449 843,446 C843,449 840,451 838,451 C835,451 833,449 833,446 C833,449 830,451 828,451 C825,451 823,449 823,446 C823,449 820,451 818,451 C815,451 813,449 813,446 C813,449 810,451 808,451 C805,451 803,449 803,446 C803,449 800,451 798,451 C795,451 793,449 793,446 C793,449 790,451 788,451 C785,451 783,449 783,446 C783,449 780,451 778,451 C775,451 773,449 773,446 C773,449 770,451 768,451 C765,451 763,449 763,446 C763,449 760,451 758,451 C755,451 753,449 753,446 C753,449 750,451 748,451 C745,451 743,449 743,446 C743,449 740,451 738,451 C735,451 733,449 733,446 C733,449 730,451 728,451 C725,451 723,449 723,446 C723,449 720,451 718,451 C715,451 713,449 713,446 C713,449 710,451 708,451 C705,451 703,449 703,446 C703,449 700,451 698,451 C695,451 693,449 693,446 C693,449 690,451 688,451 C685,451 683,449 683,446 C683,449 680,451 678,451 C675,451 673,449 673,446 C673,449 670,451 668,451 C665,451 663,449 663,446 C663,449 660,451 658,451 C655,451 653,449 653,446 C653,449 650,451 648,451 C645,451 643,449 643,446 C643,449 640,451 638,451 C635,451 633,449 633,446 C633,449 630,451 628,451 C625,451 623,449 623,446 C623,449 620,451 618,451 C615,451 613,449 613,446 C613,449 610,451 608,451 C605,451 603,449 603,446 C603,449 600,451 598,451 C595,451 593,449 593,446 C593,449 590,451 588,451 C585,451 583,449 583,446 C583,449 580,451 578,451 C575,451 573,449 573,446 C573,449 570,451 568,451 C565,451 563,449 563,446 C563,449 560,451 558,451 C555,451 553,449 553,446 C553,449 550,451 548,451 C545,451 543,449 543,446 C543,449 540,451 538,451 C535,451 533,449 533,446 C533,449 530,451 528,451 C525,451 523,449 523,446 C523,449 520,451 518,451 C515,451 513,449 513,446 C513,449 510,451 508,451 C505,451 503,449 503,446 C503,449 500,451 498,451 C495,451 493,449 493,446 C493,449 490,451 488,451 C485,451 483,449 483,446 C483,449 480,451 478,451 C475,451 473,449 473,446 C473,449 470,451 468,451 C465,451 463,449 463,446 C463,449 460,451 458,451 C455,451 453,449 453,446 C453,449 450,451 448,451 C445,451 443,449 443,446 C443,449 440,451 438,451 C435,451 433,449 433,446 C433,449 430,451 428,451 C425,451 423,449 423,446 C423,449 420,451 418,451 C415,451 413,449 413,446 C413,449 410,451 408,451 C405,451 403,449 403,446 C403,449 400,451 398,451 C395,451 393,449 393,446 C393,449 390,451 388,451 C385,451 383,449 383,446 C383,449 380,451 378,451 C375,451 373,449 373,446 C373,449 370,451 368,451 C365,451 363,449 363,446 C363,449 360,451 358,451 C355,451 353,449 353,446 C353,449 350,451 348,451 C345,451 343,449 343,446 C343,449 340,451 338,451 C335,451 333,449 333,446 C333,449 330,451 328,451 C325,451 323,449 323,446 C323,449 320,451 318,451 C315,451 313,449 313,446 C313,449 310,451 308,451 C305,451 303,449 303,446 C303,449 300,451 298,451 C295,451 293,449 293,446 C293,449 290,451 288,451 C285,451 283,449 283,446 C283,449 280,451 278,451 C275,451 273,449 273,446 C273,449 270,451 268,451 C265,451 263,449 263,446 C263,449 260,451 258,451 C255,451 253,449 253,446 C253,449 250,451 248,451 C245,451 243,449 243,446 C243,449 240,451 238,451 C235,451 233,449 233,446 C233,449 230,451 228,451 C225,451 223,449 223,446 C223,449 220,451 218,451 C215,451 213,449 213,446 C213,449 210,451 208,451 C205,451 203,449 203,446 C203,449 200,451 198,451 C195,451 193,449 193,446 C193,449 190,451 188,451 C185,451 183,449 183,446 C183,449 180,451 178,451 C175,451 173,449 173,446 C173,449 170,451 168,451 C165,451 163,449 163,446 C163,449 160,451 158,451 C155,451 153,449 153,446 C153,449 150,451 148,451 C145,451 143,449 143,446 C143,449 140,451 138,451 C135,451 133,449 133,446 C133,449 130,451 128,451 C125,451 123,449 123,446 C123,449 120,451 118,451 C115,451 113,449 113,446 C113,449 110,451 108,451 C105,451 103,449 103,446 C103,449 100,451 98,451 C95,451 93,449 93,446 C93,449 90,451 88,451 C85,451 83,449 83,446 C83,449 80,451 78,451 C75,451 73,449 73,446 C73,449 70,451 68,451 C65,451 63,449 63,446 C63,449 60,451 58,451 C55,451 53,449 53,446 C53,449 50,451 48,451 C45,451 43,449 43,446 C43,449 40,451 38,451 C35,451 33,449 33,446 C30,446 28,444 28,441 C28,438 30,436 33,436 C30,436 28,434 28,431 C28,428 30,426 33,426 C30,426 28,424 28,421 C28,418 30,416 33,416 C30,416 28,414 28,411 C28,408 30,406 33,406 C30,406 28,404 28,401 C28,398 30,396 33,396 C30,396 28,394 28,391 C28,388 30,386 33,386 C30,386 28,384 28,381 C28,378 30,376 33,376 C30,376 28,374 28,371 C28,368 30,366 33,366 C30,366 28,364 28,361 C28,358 30,356 33,356 C30,356 28,354 28,351 C28,348 30,346 33,346 C30,346 28,344 28,341 C28,338 30,336 33,336 C30,336 28,334 28,331 C28,328 30,326 33,326 C30,326 28,324 28,321 C28,318 30,316 33,316 C30,316 28,314 28,311 C28,308 30,306 33,306 C30,306 28,304 28,301 C28,298 30,296 33,296 C30,296 28,294 28,291 C28,288 30,286 33,286 C30,286 28,284 28,281 C28,278 30,276 33,276 C30,276 28,274 28,271 C28,268 30,266 33,266 C30,266 28,264 28,261 C28,258 30,256 33,256 C30,256 28,254 28,251 C28,248 30,246 33,246 C30,246 28,244 28,241 C28,238 30,236 33,236 " fill="#FFFFFF" filter="url(#f1)" style="stroke: #000000; stroke-width: 2.0;"/><text fill="#000000" font-family="sans-serif" font-size="14" font-weight="bold" lengthAdjust="spacingAndGlyphs" textLength="53" x="488.5" y="254.9951">Server</text><polygon fill="#FFFFFF" filter="url(#f1)" points="828,280,900,280,907,302.2969,968,302.2969,968,417,828,417,828,280" style="stroke: #000000; stroke-width: 2.0;"/><line style="stroke: #000000; stroke-width: 2.0;" x1="828" x2="907" y1="302.2969" y2="302.2969"/><text fill="#000000" font-family="sans-serif" font-size="14" font-weight="bold" lengthAdjust="spacingAndGlyphs" textLength="66" x="832" y="294.9951">domains</text><polygon fill="#FFFFFF" filter="url(#f1)" points="310,286,383,286,390,308.2969,804,308.2969,804,411,310,411,310,286" style="stroke: #000000; stroke-width: 2.0;"/><line style="stroke: #000000; stroke-width: 2.0;" x1="310" x2="390" y1="308.2969" y2="308.2969"/><text fill="#000000" font-family="sans-serif" font-size="14" font-weight="bold" lengthAdjust="spacingAndGlyphs" textLength="67" x="314" y="300.9951">services</text><polygon fill="#FFFFFF" filter="url(#f1)" points="70,286,162,286,169,308.2969,286,308.2969,286,411,70,411,70,286" style="stroke: #000000; stroke-width: 2.0;"/><line style="stroke: #000000; stroke-width: 2.0;" x1="70" x2="169" y1="308.2969" y2="308.2969"/><text fill="#000000" font-family="sans-serif" font-size="14" font-weight="bold" lengthAdjust="spacingAndGlyphs" textLength="86" x="74" y="300.9951">controllers</text><polygon fill="#FFFFFF" filter="url(#f1)" points="313.5,75,362.5,75,369.5,97.2969,376.5,97.2969,376.5,143.8906,313.5,143.8906,313.5,75" style="stroke: #000000; stroke-width: 2.0;"/><line style="stroke: #000000; stroke-width: 2.0;" x1="313.5" x2="369.5" y1="97.2969" y2="97.2969"/><text fill="#000000" font-family="sans-serif" font-size="14" font-weight="bold" lengthAdjust="spacingAndGlyphs" textLength="43" x="317.5" y="89.9951">HTML</text><polygon fill="#FFFFFF" filter="url(#f1)" points="206,75,264,75,271,97.2969,278,97.2969,278,143.8906,206,143.8906,206,75" style="stroke: #000000; stroke-width: 2.0;"/><line style="stroke: #000000; stroke-width: 2.0;" x1="206" x2="271" y1="97.2969" y2="97.2969"/><text fill="#000000" font-family="sans-serif" font-size="14" font-weight="bold" lengthAdjust="spacingAndGlyphs" textLength="52" x="210" y="89.9951">JQuery</text><polygon fill="#FFFFFF" filter="url(#f1)" points="73.5,75,156.5,75,163.5,97.2969,170.5,97.2969,170.5,143.8906,73.5,143.8906,73.5,75" style="stroke: #000000; stroke-width: 2.0;"/><line style="stroke: #000000; stroke-width: 2.0;" x1="73.5" x2="163.5" y1="97.2969" y2="97.2969"/><text fill="#000000" font-family="sans-serif" font-size="14" font-weight="bold" lengthAdjust="spacingAndGlyphs" textLength="77" x="77.5" y="89.9951">Bootstrap</text><rect fill="#FEFECE" filter="url(#f1)" height="86.4141" style="stroke: #A80036; stroke-width: 1.5;" width="108" x="844" y="315"/><ellipse cx="881.05" cy="331" fill="#ADD1B2" rx="11" ry="11" style="stroke: #A80036; stroke-width: 1.0;"/><path d="M884.0188,336.6406 Q883.4406,336.9375 882.8,337.0859 Q882.1594,337.2344 881.4563,337.2344 Q878.9563,337.2344 877.6359,335.5859 Q876.3156,333.9375 876.3156,330.8125 Q876.3156,327.6875 877.6359,326.0313 Q878.9563,324.375 881.4563,324.375 Q882.1594,324.375 882.8078,324.5313 Q883.4563,324.6875 884.0188,324.9844 L884.0188,327.7031 Q883.3938,327.125 882.8,326.8516 Q882.2063,326.5781 881.5813,326.5781 Q880.2375,326.5781 879.55,327.6484 Q878.8625,328.7188 878.8625,330.8125 Q878.8625,332.9063 879.55,333.9766 Q880.2375,335.0469 881.5813,335.0469 Q882.2063,335.0469 882.8,334.7734 Q883.3938,334.5 884.0188,333.9219 L884.0188,336.6406 Z "/><text fill="#000000" font-family="sans-serif" font-size="12" lengthAdjust="spacingAndGlyphs" textLength="27" x="899.95" y="335.1543">Sum</text><line style="stroke: #A80036; stroke-width: 1.5;" x1="845" x2="951" y1="347" y2="347"/><text fill="#000000" font-family="sans-serif" font-size="11" lengthAdjust="spacingAndGlyphs" textLength="96" x="850" y="361.2104">Integer quantity1</text><text fill="#000000" font-family="sans-serif" font-size="11" lengthAdjust="spacingAndGlyphs" textLength="96" x="850" y="374.0151">Integer quantity2</text><text fill="#000000" font-family="sans-serif" font-size="11" lengthAdjust="spacingAndGlyphs" textLength="77" x="850" y="386.8198">Integer result</text><line style="stroke: #A80036; stroke-width: 1.5;" x1="845" x2="951" y1="393.4141" y2="393.4141"/><rect fill="#FEFECE" filter="url(#f1)" height="73.6094" style="stroke: #A80036; stroke-width: 1.5;" width="462" x="326" y="321"/><ellipse cx="485.25" cy="337" fill="#ADD1B2" rx="11" ry="11" style="stroke: #A80036; stroke-width: 1.0;"/><path d="M488.2188,342.6406 Q487.6406,342.9375 487,343.0859 Q486.3594,343.2344 485.6563,343.2344 Q483.1563,343.2344 481.8359,341.5859 Q480.5156,339.9375 480.5156,336.8125 Q480.5156,333.6875 481.8359,332.0313 Q483.1563,330.375 485.6563,330.375 Q486.3594,330.375 487.0078,330.5313 Q487.6563,330.6875 488.2188,330.9844 L488.2188,333.7031 Q487.5938,333.125 487,332.8516 Q486.4063,332.5781 485.7813,332.5781 Q484.4375,332.5781 483.75,333.6484 Q483.0625,334.7188 483.0625,336.8125 Q483.0625,338.9063 483.75,339.9766 Q484.4375,341.0469 485.7813,341.0469 Q486.4063,341.0469 487,340.7734 Q487.5938,340.5 488.2188,339.9219 L488.2188,342.6406 Z "/><text fill="#000000" font-family="sans-serif" font-size="12" lengthAdjust="spacingAndGlyphs" textLength="135" x="505.75" y="341.1543">SumCalculatorService</text><line style="stroke: #A80036; stroke-width: 1.5;" x1="327" x2="787" y1="353" y2="353"/><line style="stroke: #A80036; stroke-width: 1.5;" x1="327" x2="787" y1="361" y2="361"/><ellipse cx="337" cy="372.9023" fill="#84BE84" rx="3" ry="3" style="stroke: #038048; stroke-width: 1.0;"/><text fill="#000000" font-family="sans-serif" font-size="11" lengthAdjust="spacingAndGlyphs" textLength="436" x="346" y="375.2104">add(quantity1 : Integer, quantity2 : Integer) throws MissingQuantityException</text><ellipse cx="337" cy="385.707" fill="#84BE84" rx="3" ry="3" style="stroke: #038048; stroke-width: 1.0;"/><text fill="#000000" font-family="sans-serif" font-size="11" lengthAdjust="spacingAndGlyphs" textLength="70" x="346" y="388.0151">bringSums()</text><rect fill="#FEFECE" filter="url(#f1)" height="73.6094" style="stroke: #A80036; stroke-width: 1.5;" width="183" x="86.5" y="321"/><ellipse cx="101.5" cy="337" fill="#ADD1B2" rx="11" ry="11" style="stroke: #A80036; stroke-width: 1.0;"/><path d="M104.4688,342.6406 Q103.8906,342.9375 103.25,343.0859 Q102.6094,343.2344 101.9063,343.2344 Q99.4063,343.2344 98.0859,341.5859 Q96.7656,339.9375 96.7656,336.8125 Q96.7656,333.6875 98.0859,332.0313 Q99.4063,330.375 101.9063,330.375 Q102.6094,330.375 103.2578,330.5313 Q103.9063,330.6875 104.4688,330.9844 L104.4688,333.7031 Q103.8438,333.125 103.25,332.8516 Q102.6563,332.5781 102.0313,332.5781 Q100.6875,332.5781 100,333.6484 Q99.3125,334.7188 99.3125,336.8125 Q99.3125,338.9063 100,339.9766 Q100.6875,341.0469 102.0313,341.0469 Q102.6563,341.0469 103.25,340.7734 Q103.8438,340.5 104.4688,339.9219 L104.4688,342.6406 Z "/><text fill="#000000" font-family="sans-serif" font-size="12" lengthAdjust="spacingAndGlyphs" textLength="151" x="115.5" y="341.1543">SumCalculatorController</text><line style="stroke: #A80036; stroke-width: 1.5;" x1="87.5" x2="268.5" y1="353" y2="353"/><line style="stroke: #A80036; stroke-width: 1.5;" x1="87.5" x2="268.5" y1="361" y2="361"/><text fill="#000000" font-family="sans-serif" font-size="11" lengthAdjust="spacingAndGlyphs" textLength="104" x="92.5" y="375.2104">[POST] saveSum()</text><text fill="#000000" font-family="sans-serif" font-size="11" lengthAdjust="spacingAndGlyphs" textLength="94" x="92.5" y="388.0151">[GET] getSums()</text><path d="M38,167.743 C38,184.814 38,204.28 38,224.082 " fill="none" style="stroke: #A80036; stroke-width: 1.0;"/><polygon fill="#A80036" points="38,229.274,42,220.274,38,224.274,34,220.274,38,229.274" style="stroke: #A80036; stroke-width: 1.0;"/></g></svg>